<?xml version="1.0" encoding="UTF-8" standalone="no"?>
<!-- Created with Inkscape (http://www.inkscape.org/) -->

<svg
   version="1.1"
   id="svg1"
   width="573.92188"
   height="147.98608"
   viewBox="0 0 573.92188 147.98608"
   sodipodi:docname="brandbook.pdf"
   xmlns:inkscape="http://www.inkscape.org/namespaces/inkscape"
   xmlns:sodipodi="http://sodipodi.sourceforge.net/DTD/sodipodi-0.dtd"
   xmlns="http://www.w3.org/2000/svg"
   xmlns:svg="http://www.w3.org/2000/svg">
  <defs
     id="defs1">
    <clipPath
       clipPathUnits="userSpaceOnUse"
       id="clipPath1283">
      <path
         d="M 985.313,521.558 H 1175.65 V 480.001 H 985.313 Z"
         transform="matrix(1,0,0,-1,-985.31327,496.90821)"
         id="path1283" />
    </clipPath>
    <clipPath
       clipPathUnits="userSpaceOnUse"
       id="clipPath1284">
      <path
         d="M 985.313,521.558 H 1175.65 V 480.001 H 985.313 Z"
         transform="matrix(1.3333333,0,0,-1.3333333,15480,1440)"
         id="path1284" />
    </clipPath>
    <clipPath
       clipPathUnits="userSpaceOnUse"
       id="clipPath1285">
      <path
         d="M 985.313,521.558 H 1175.65 V 480.001 H 985.313 Z"
         transform="matrix(1.3333333,0,0,-1.3333333,15480,1440)"
         id="path1285" />
    </clipPath>
    <clipPath
       clipPathUnits="userSpaceOnUse"
       id="clipPath1288">
      <path
         d="M 0,1080 H 1920 V 0 H 0 Z"
         transform="matrix(1.3333333,0,0,-1.3333333,15480,1440)"
         id="path1288" />
    </clipPath>
    <clipPath
       clipPathUnits="userSpaceOnUse"
       id="clipPath1290">
      <path
         d="M 0,1080 H 1920 V 0 H 0 Z"
         transform="translate(-1059.7568,-544.00252)"
         id="path1290" />
    </clipPath>
    <clipPath
       clipPathUnits="userSpaceOnUse"
       id="clipPath1292">
      <path
         d="M 0,1080 H 1920 V 0 H 0 Z"
         transform="translate(-766.07102,-502.24192)"
         id="path1292" />
    </clipPath>
    <clipPath
       clipPathUnits="userSpaceOnUse"
       id="clipPath1294">
      <path
         d="M 0,1080 H 1920 V 0 H 0 Z"
         transform="translate(-778.32677,-596.54371)"
         id="path1294" />
    </clipPath>
    <clipPath
       clipPathUnits="userSpaceOnUse"
       id="clipPath1296">
      <path
         d="M 0,1080 H 1920 V 0 H 0 Z"
         transform="translate(-813.84602,-595.40891)"
         id="path1296" />
    </clipPath>
    <clipPath
       clipPathUnits="userSpaceOnUse"
       id="clipPath1298">
      <path
         d="M 0,1080 H 1920 V 0 H 0 Z"
         transform="translate(-752.90702,-573.73432)"
         id="path1298" />
    </clipPath>
    <clipPath
       clipPathUnits="userSpaceOnUse"
       id="clipPath1300">
      <path
         d="M 0,1080 H 1920 V 0 H 0 Z"
         transform="translate(-834.95327,-546.27211)"
         id="path1300" />
    </clipPath>
    <clipPath
       clipPathUnits="userSpaceOnUse"
       id="clipPath1302">
      <path
         d="M 0,1080 H 1920 V 0 H 0 Z"
         transform="translate(-923.01377,-573.84772)"
         id="path1302" />
    </clipPath>
  </defs>
  <sodipodi:namedview
     id="namedview1"
     pagecolor="#ffffff"
     bordercolor="#000000"
     borderopacity="0.25"
     inkscape:showpageshadow="2"
     inkscape:pageopacity="0.0"
     inkscape:pagecheckerboard="0"
     inkscape:deskcolor="#d1d1d1">
    <inkscape:page
       x="0"
       y="0"
       width="573.92188"
       height="147.98608"
       id="page2"
       margin="0"
       bleed="0" />
  </sodipodi:namedview>
  <g
     id="g1282"
     inkscape:groupmode="layer"
     inkscape:label="7"
     transform="translate(-16472.461,-640.00222)">
    <g
       id="g1288"
       clip-path="url(#clipPath1288)">
      <g
         clip-path="url(#clipPath1285)"
         id="g1287">
        <g
           clip-path="url(#clipPath1284)"
           id="g1286">
          <path
             d="m 8.7763438,-20.190433 c 2.1474612,0 4.0312502,0.416016 5.6484372,1.242188 1.617188,0.820312 2.862305,2.000976 3.738282,3.539062 0.881835,1.541016 1.324218,3.336914 1.324218,5.390625 0,2.0566408 -0.442383,3.8378908 -1.324218,5.3437502 -0.875977,1.508789 -2.121094,2.6660156 -3.738282,3.46875 C 12.807594,-0.40039375 10.923805,9.734375e-4 8.7763438,9.734375e-4 H 2.1786875 V -20.190433 Z m 0,17.4843752 c 2.3583982,0 4.1660152,-0.6357422 5.4257812,-1.9101563 1.256836,-1.2802734 1.886719,-3.0820312 1.886719,-5.4023439 0,-2.34375 -0.629883,-4.171875 -1.886719,-5.484375 -1.259766,-1.318359 -3.067383,-1.980469 -5.4257812,-1.980469 h -3.28125 V -2.7060578 Z M 46.165016,-8.3896516 c 0,0.5947266 -0.04102,1.1337891 -0.117188,1.6171875 H 33.813453 c 0.09961,1.2832032 0.577149,2.3085938 1.429688,3.0820313 0.849609,0.7734375 1.892578,1.1601562 3.128906,1.1601562 1.787109,0 3.049805,-0.7441406 3.785156,-2.2382812 h 3.574219 c -0.486328,1.4765625 -1.365234,2.6835937 -2.636719,3.6210937 -1.265625,0.93750004 -2.841797,1.40625004 -4.722656,1.40625004 -1.523438,0 -2.891602,-0.34277344 -4.101563,-1.03125 -1.21289,-0.68554684 -2.162109,-1.65234374 -2.847656,-2.89453124 -0.688476,-1.2480469 -1.03125,-2.6982422 -1.03125,-4.3476563 0,-1.6464843 0.331055,-3.0966794 0.996094,-4.3476564 0.670898,-1.248047 1.611328,-2.208984 2.824219,-2.882812 1.209961,-0.679688 2.595703,-1.019532 4.160156,-1.019532 1.514648,0 2.862305,0.328125 4.042969,0.984375 1.177734,0.65625 2.097656,1.582032 2.753906,2.777344 0.662109,1.189453 0.996094,2.5605471 0.996094,4.1132814 z m -3.457032,-1.0546875 c -0.02344,-1.2187499 -0.46289,-2.1943359 -1.3125,-2.9296879 -0.852539,-0.732421 -1.907226,-1.101562 -3.164062,-1.101562 -1.142578,0 -2.118164,0.363281 -2.929688,1.089844 -0.814453,0.726562 -1.297851,1.708007 -1.453125,2.9414059 z m 21.237305,9.70312504 c -1.259766,0 -2.387695,-0.22851563 -3.386719,-0.6796875 C 59.556617,-0.87207344 58.768531,-1.4902375 58.191383,-2.2724641 57.611305,-3.06055 57.303688,-3.9394563 57.265602,-4.9091828 h 3.421875 c 0.06152,0.6796875 0.386718,1.2480469 0.972656,1.6992187 0.591797,0.4541016 1.335937,0.6796875 2.226562,0.6796875 0.928711,0 1.646485,-0.1757812 2.15625,-0.5273437 0.515625,-0.3574219 0.773438,-0.8203125 0.773438,-1.3828125 0,-0.600586 -0.28711,-1.0458985 -0.855469,-1.3359375 -0.571289,-0.2958985 -1.476562,-0.6152344 -2.71875,-0.9609375 -1.195312,-0.328125 -2.173828,-0.647461 -2.929687,-0.9609375 -0.758789,-0.3105469 -1.415039,-0.7851563 -1.96875,-1.4179688 -0.547852,-0.6386718 -0.820313,-1.4824219 -0.820313,-2.5312499 0,-0.849609 0.249024,-1.628906 0.75,-2.332031 0.506836,-0.708985 1.230469,-1.268555 2.167969,-1.675782 0.9375,-0.404296 2.015625,-0.609375 3.234375,-0.609375 1.819336,0 3.287109,0.462891 4.40625,1.382813 1.116211,0.914062 1.710937,2.167969 1.78125,3.761719 H 66.55857 c -0.06445,-0.717774 -0.357422,-1.289063 -0.878906,-1.710938 -0.515625,-0.427734 -1.224609,-0.644531 -2.121094,-0.644531 -0.867187,0 -1.535156,0.164062 -2.003906,0.492187 -0.462891,0.328125 -0.691406,0.761719 -0.691406,1.300782 0,0.430664 0.152344,0.791015 0.457031,1.078125 0.310547,0.290039 0.691406,0.515625 1.136719,0.6796872 0.445312,0.1640625 1.104492,0.375 1.980469,0.6328125 1.163086,0.3046875 2.115234,0.618164 2.859375,0.9375 0.741211,0.3222656 1.382812,0.7939453 1.921875,1.4179687 0.544921,0.6181641 0.832031,1.4384766 0.855468,2.4609375 0,0.9140625 -0.254882,1.7314453 -0.761718,2.4492188 -0.500977,0.711914 -1.212891,1.27148436 -2.132813,1.67578124 -0.922851,0.40429687 -2.000976,0.609375 -3.234375,0.609375 z M 84.048805,-18.127933 c -0.603516,0 -1.107422,-0.202148 -1.511719,-0.609375 -0.407227,-0.404297 -0.609375,-0.908203 -0.609375,-1.511719 0,-0.600586 0.202148,-1.104492 0.609375,-1.511718 0.404297,-0.404297 0.908203,-0.609375 1.511719,-0.609375 0.577148,0 1.069336,0.205078 1.476562,0.609375 0.404297,0.407226 0.609375,0.911132 0.609375,1.511718 0,0.603516 -0.205078,1.107422 -0.609375,1.511719 -0.407226,0.407227 -0.899414,0.609375 -1.476562,0.609375 z m 1.628906,2.121094 V 9.734375e-4 H 82.361305 V -16.006839 Z m 19.511719,-0.257813 c 1.24219,0 2.33789,0.246094 3.29297,0.738282 0.96094,0.492187 1.71387,1.107422 2.26172,1.839843 v -2.320312 h 3.33984 V 0.25878594 c 0,1.47656246 -0.31348,2.78906246 -0.9375,3.93749996 -0.61816,1.1542969 -1.51172,2.0625 -2.68359,2.71875 -1.17188,0.65625 -2.57227,0.984375 -4.19532,0.984375 -2.17382,0 -3.97851,-0.5097656 -5.41406,-1.5234375 C 99.423805,5.3593719 98.615211,3.9794891 98.427711,2.2392547 h 3.281249 c 0.24902,0.8261719 0.78516,1.5 1.60547,2.015625 0.82617,0.515625 1.81055,0.7734375 2.95312,0.7734375 1.33594,0 2.41407,-0.4072266 3.23438,-1.21875 0.82617,-0.8144531 1.24219,-1.9980469 1.24219,-3.55078126 V -2.4130891 c -0.5625,0.7587891 -1.32422,1.3945313 -2.28516,1.91015629 -0.96094,0.50683593 -2.05078,0.76171875 -3.26953,0.76171875 -1.3916,0 -2.66602,-0.3515625 -3.82031,-1.0546875 -1.14844,-0.70898434 -2.059573,-1.69921874 -2.730472,-2.96484374 -0.665039,-1.265625 -0.996093,-2.7011719 -0.996093,-4.3125 0,-1.6083985 0.331054,-3.0292967 0.996093,-4.2656247 0.670899,-1.242188 1.582032,-2.206055 2.730472,-2.894532 1.15429,-0.685546 2.42871,-1.03125 3.82031,-1.03125 z m 5.55469,8.2500004 c 0,-1.1074218 -0.23145,-2.0683594 -0.69141,-2.8828124 -0.4541,-0.811524 -1.04883,-1.429688 -1.78125,-1.851563 -0.73535,-0.427734 -1.5293,-0.644531 -2.37891,-0.644531 -0.85253,0 -1.64941,0.210938 -2.39062,0.632813 -0.73535,0.416015 -1.33008,1.02539 -1.78125,1.828125 -0.4541,0.805664 -0.67969,1.7578122 -0.67969,2.8593747 0,1.1015625 0.22559,2.071289 0.67969,2.90625 0.45117,0.8291015 1.04883,1.461914 1.79297,1.8984375 0.75,0.4394531 1.54101,0.65625 2.3789,0.65625 0.84961,0 1.64356,-0.2109375 2.37891,-0.6328125 0.73242,-0.4277344 1.32715,-1.0546875 1.78125,-1.875 0.45996,-0.8261719 0.69141,-1.7929688 0.69141,-2.8945313 z m 24.48633,-8.2500004 c 1.25683,0 2.38476,0.263672 3.38671,0.785157 0.99903,0.524414 1.77539,1.297851 2.33204,2.320312 0.5625,1.025391 0.84375,2.261719 0.84375,3.7148439 V 9.734375e-4 H 138.5117 V -8.9521516 c 0,-1.4296874 -0.36036,-2.5253904 -1.07813,-3.2929684 -0.71191,-0.764649 -1.6875,-1.148438 -2.92969,-1.148438 -1.24218,0 -2.22656,0.383789 -2.95312,1.148438 -0.72071,0.767578 -1.07813,1.863281 -1.07813,3.2929684 V 9.734375e-4 h -3.3164 V -16.006839 h 3.3164 v 1.828125 c 0.53907,-0.65625 1.23047,-1.166016 2.07422,-1.535156 0.84375,-0.366211 1.73731,-0.550782 2.6836,-0.550782 z m 34.16601,7.8750004 c 0,0.5947266 -0.041,1.1337891 -0.11719,1.6171875 H 157.0449 c 0.0996,1.2832032 0.57715,2.3085938 1.42969,3.0820313 0.84961,0.7734375 1.89257,1.1601562 3.1289,1.1601562 1.78711,0 3.04981,-0.7441406 3.78516,-2.2382812 h 3.57422 c -0.48633,1.4765625 -1.36524,2.6835937 -2.63672,3.6210937 -1.26563,0.93750004 -2.8418,1.40625004 -4.72266,1.40625004 -1.52344,0 -2.8916,-0.34277344 -4.10156,-1.03125 -1.21289,-0.68554684 -2.16211,-1.65234374 -2.84766,-2.89453124 -0.68847,-1.2480469 -1.03125,-2.6982422 -1.03125,-4.3476563 0,-1.6464843 0.33106,-3.0966794 0.9961,-4.3476564 0.6709,-1.248047 1.61133,-2.208984 2.82422,-2.882812 1.20996,-0.679688 2.5957,-1.019532 4.16015,-1.019532 1.51465,0 2.86231,0.328125 4.04297,0.984375 1.17774,0.65625 2.09766,1.582032 2.75391,2.777344 0.66211,1.189453 0.99609,2.5605471 0.99609,4.1132814 z m -3.45703,-1.0546875 c -0.0234,-1.2187499 -0.46289,-2.1943359 -1.3125,-2.9296879 -0.85254,-0.732421 -1.90723,-1.101562 -3.16406,-1.101562 -1.14258,0 -2.11817,0.363281 -2.92969,1.089844 -0.81445,0.726562 -1.29785,1.708007 -1.45313,2.9414059 z m 18.74121,-4.2421879 c 0.4834,-0.811523 1.125,-1.444336 1.92188,-1.898437 0.80273,-0.451172 1.76074,-0.679688 2.87109,-0.679688 v 3.421875 h -0.84375 c -1.29785,0 -2.28223,0.333985 -2.95313,0.996094 -0.66503,0.65625 -0.99609,1.798828 -0.99609,3.4218752 V 9.734375e-4 h -3.31641 V -16.006839 h 3.31641 z m 0,0"
             style="fill:#ffffff;fill-opacity:1;fill-rule:nonzero;stroke:none"
             aria-label="Designer"
             transform="matrix(1.3333333,0,0,1.3333333,16793.751,777.45573)"
             clip-path="url(#clipPath1283)"
             id="path1286" />
        </g>
      </g>
    </g>
    <path
       id="path1289"
       d="m 0,0 h 6.922 c 1.703,0 3.291,-0.227 4.766,-0.681 1.589,-0.454 2.837,-1.135 3.859,-2.156 1.021,-1.021 1.475,-2.383 1.475,-4.199 0,-1.815 -0.454,-2.95 -1.248,-4.085 -0.908,-1.021 -2.043,-1.816 -3.405,-2.383 -1.475,-0.454 -3.064,-0.681 -4.766,-0.681 H 0.113 V 0 Z m 84.542,22.356 h 7.717 c 1.816,0 3.291,-0.341 4.539,-0.908 1.249,-0.568 2.156,-1.362 2.837,-2.383 0.681,-0.908 1.249,-1.93 1.476,-2.951 0.34,-1.021 0.453,-1.929 0.453,-2.837 0,-0.908 -0.113,-1.929 -0.453,-2.95 C 100.77,9.305 100.316,8.398 99.635,7.49 98.954,6.582 98.047,5.787 96.798,5.22 95.55,4.653 93.961,4.312 92.146,4.312 h -7.49 V 22.356 Z M 0,22.356 h 6.241 c 2.497,0 4.54,-0.568 6.015,-1.703 1.475,-1.134 2.269,-2.837 2.269,-5.22 0,-2.383 -0.567,-3.745 -1.815,-5.22 C 11.575,8.738 9.759,8.057 7.149,8.057 H 0 v 14.185 z m -42.328,0.567 c 2.497,0 4.88,-0.454 7.149,-1.475 2.27,-1.022 4.086,-2.27 5.788,-3.972 1.589,-1.702 2.951,-3.745 3.858,-6.015 0.908,-2.269 1.476,-4.652 1.476,-7.376 0,-2.723 -0.454,-4.993 -1.476,-7.262 -0.908,-2.27 -2.156,-4.199 -3.858,-6.015 -1.589,-1.702 -3.518,-2.95 -5.788,-3.972 -2.156,-0.907 -4.425,-1.475 -6.922,-1.475 -2.497,0 -4.993,0.454 -7.149,1.475 -2.157,1.022 -4.199,2.27 -5.788,3.972 -1.702,1.702 -2.95,3.745 -3.972,6.015 -0.908,2.269 -1.361,4.652 -1.361,7.262 0,2.61 0.453,4.993 1.361,7.263 0.908,2.27 2.156,4.312 3.859,6.014 1.702,1.703 3.631,3.064 5.787,3.972 2.156,0.908 4.539,1.475 7.149,1.475 z m -144.914,0 c 2.497,0 4.88,-0.454 7.149,-1.475 2.156,-0.908 4.086,-2.27 5.788,-3.972 1.589,-1.702 2.951,-3.745 3.858,-6.015 0.908,-2.269 1.475,-4.652 1.475,-7.376 0,-2.723 -0.453,-4.993 -1.475,-7.262 -0.908,-2.27 -2.156,-4.199 -3.858,-6.015 -1.589,-1.702 -3.518,-2.95 -5.788,-3.972 -2.156,-0.907 -4.425,-1.475 -6.922,-1.475 -2.497,0 -4.993,0.454 -7.149,1.475 -2.157,1.022 -4.199,2.27 -5.788,3.972 -1.702,1.702 -2.951,3.745 -3.972,6.015 -0.908,2.269 -1.361,4.652 -1.361,7.262 0,2.61 0.453,4.993 1.361,7.263 0.908,2.27 2.156,4.312 3.858,6.014 0.908,1.022 1.93,1.816 3.064,2.497 0.341,0.227 0.795,0.454 1.135,0.681 0.568,0.34 1.021,0.567 1.589,0.794 2.156,0.908 4.539,1.476 7.149,1.476 z m 263.387,7.49 v -52.315 h 8.397 v 18.157 h 7.604 0.794 l 11.802,-18.27 h 9.646 l -12.71,20.199 c 1.816,0.908 3.291,2.156 4.425,3.518 1.476,1.702 2.497,3.518 3.064,5.561 0.568,2.042 0.908,4.085 0.908,6.128 0,2.042 -0.454,5.106 -1.475,7.149 -0.908,2.156 -2.156,3.858 -3.858,5.333 -1.702,1.476 -3.745,2.497 -6.128,3.291 -2.383,0.795 -4.993,1.135 -7.944,1.135 H 75.918 Z m -43.349,0 v -52.315 h 35.746 v 8.057 H 41.193 V 0.34 H 64.57 V 8.398 H 41.193 v 13.958 h 26.328 v 8.057 z m -41.193,0 V -21.902 H 7.944 c 2.269,0 4.539,0.227 6.581,0.795 2.156,0.567 3.972,1.475 5.674,2.61 1.703,1.248 2.951,2.723 3.972,4.652 1.021,1.93 1.475,4.199 1.475,6.923 0,2.723 -0.907,5.447 -2.61,7.603 -1.588,2.043 -3.858,3.631 -6.581,4.766 1.929,1.135 3.518,2.497 4.652,4.199 1.362,2.156 2.043,4.653 2.043,7.603 0,4.426 -1.589,7.717 -4.653,9.873 -3.064,2.156 -7.262,3.177 -12.596,3.177 H -8.398 Z m -97.026,0 v -8.057 h 13.164 v -44.258 h 8.284 v 44.258 h 13.504 v 8.057 z m 63.095,0.567 c -3.745,0 -7.149,-0.681 -10.44,-2.156 -3.177,-1.362 -6.014,-3.291 -8.511,-5.788 -2.496,-2.496 -4.312,-5.333 -5.788,-8.511 -1.361,-3.177 -2.042,-6.581 -2.042,-10.326 0,-3.745 0.681,-7.263 2.042,-10.44 1.362,-3.178 3.291,-6.015 5.788,-8.511 2.497,-2.383 5.22,-4.313 8.511,-5.674 3.178,-1.362 6.695,-2.043 10.44,-2.043 3.745,0 7.036,0.681 10.327,2.043 3.291,1.361 6.128,3.291 8.511,5.787 2.496,2.497 4.426,5.22 5.787,8.511 1.476,3.291 2.156,6.695 2.156,10.44 0,3.745 -0.68,7.036 -2.156,10.327 -1.361,3.177 -3.29,6.014 -5.787,8.511 -2.497,2.496 -5.334,4.426 -8.511,5.787 -3.178,1.476 -6.582,2.157 -10.327,2.157 z m -144.914,0 c -3.745,0 -7.149,-0.681 -10.44,-2.156 -3.178,-1.362 -6.015,-3.291 -8.511,-5.788 -2.497,-2.496 -4.312,-5.333 -5.788,-8.511 -1.361,-3.177 -2.042,-6.581 -2.042,-10.326 0,-3.745 0.681,-7.263 2.042,-10.44 1.362,-3.178 3.291,-6.015 5.788,-8.511 2.496,-2.383 5.22,-4.313 8.511,-5.674 3.177,-1.362 6.695,-2.043 10.44,-2.043 3.745,0 7.036,0.681 10.327,2.043 3.291,1.361 6.128,3.291 8.511,5.787 2.496,2.497 4.425,5.22 5.787,8.511 1.476,3.291 2.156,6.695 2.156,10.44 0,3.745 -0.681,7.036 -2.156,10.327 -1.361,3.177 -3.29,6.014 -5.787,8.511 -2.497,2.496 -5.334,4.426 -8.511,5.787 -3.178,1.476 -6.582,2.157 -10.327,2.157 z"
       style="fill:#ffffff;fill-opacity:1;fill-rule:nonzero;stroke:none"
       transform="matrix(1.3333333,0,0,-1.3333333,16893.009,714.66333)"
       clip-path="url(#clipPath1290)" />
    <path
       id="path1291"
       d="M 0,0 7.944,16.909 -15.433,67.18 c -0.227,-0.567 -0.454,-1.021 -0.795,-1.589 -0.34,-0.794 -0.681,-1.588 -1.021,-2.383 -0.34,-0.794 -0.567,-1.588 -0.908,-2.383 -0.34,-0.794 -0.567,-1.588 -0.794,-2.496 -0.227,-0.908 -0.454,-1.703 -0.681,-2.497 -0.227,-0.794 -0.454,-1.702 -0.567,-2.61 -0.227,-0.908 -0.341,-1.702 -0.454,-2.61 -0.114,-0.908 -0.341,-1.816 -0.454,-2.724 -0.113,-0.907 -0.227,-1.815 -0.341,-2.723 -0.113,-0.908 -0.113,-1.816 -0.226,-2.724 -0.114,-0.907 0,-1.815 0,-2.723 v -2.61 c 0,-0.908 0,-1.702 0.113,-2.497 0.114,-0.794 0.114,-1.702 0.227,-2.496 0.113,-0.795 0.227,-1.589 0.34,-2.383 0.114,-0.795 0.341,-1.589 0.454,-2.383 0.114,-0.795 0.341,-1.589 0.568,-2.27 0.227,-0.681 0.454,-1.475 0.681,-2.27 0.227,-0.794 0.567,-1.475 0.794,-2.156 0.227,-0.681 0.567,-1.361 0.908,-2.156 0.34,-0.794 0.681,-1.362 1.021,-2.042 0.34,-0.681 0.794,-1.362 1.135,-1.93 0.34,-0.567 0.794,-1.248 1.248,-1.929 0.454,-0.681 0.908,-1.248 1.362,-1.815 0.454,-0.568 1.021,-1.249 1.475,-1.816 C -10.78,8.397 -10.327,7.83 -9.759,7.263 -9.192,6.695 -8.624,6.128 -8.17,5.674 -7.717,5.22 -7.036,4.653 -6.468,4.199 -5.901,3.745 -5.333,3.291 -4.766,2.837 -4.199,2.383 -3.631,1.929 -2.95,1.589 -2.269,1.248 -1.702,0.794 -1.135,0.454 -0.908,0.34 -0.567,0.113 -0.34,0 Z"
       style="fill:#ffffff;fill-opacity:1;fill-rule:nonzero;stroke:none"
       transform="matrix(1.3333333,0,0,-1.3333333,16501.428,770.34413)"
       clip-path="url(#clipPath1292)" />
    <path
       id="path1293"
       d="M 0,0 15.887,-34.044 32.001,0.454 c -0.567,0.227 -1.134,0.454 -1.702,0.681 -0.681,0.227 -1.362,0.454 -2.043,0.681 -0.681,0.227 -1.361,0.34 -2.156,0.567 -0.681,0.114 -1.475,0.227 -2.156,0.454 -0.68,0.227 -1.475,0.227 -2.269,0.34 -0.795,0.114 -1.589,0.114 -2.27,0.227 -0.681,0.114 -1.588,0 -2.383,0 h -2.383 c -0.795,0 -1.589,0 -2.383,-0.227 C 11.461,2.951 10.667,2.951 9.986,2.837 9.305,2.724 8.511,2.61 7.716,2.383 6.922,2.27 6.241,2.043 5.447,1.816 4.653,1.589 3.971,1.362 3.291,1.135 2.61,0.908 1.815,0.681 1.135,0.34 0.794,0.34 0.567,0.113 0.227,0 Z"
       style="fill:#ffffff;fill-opacity:1;fill-rule:nonzero;stroke:none"
       transform="matrix(1.3333333,0,0,-1.3333333,16517.769,644.6084)"
       clip-path="url(#clipPath1294)" />
    <path
       id="path1295"
       d="m 0,0 -21.107,-45.279 h 42.555 v 0.908 2.724 2.61 2.61 c 0,0.908 -0.114,1.702 -0.227,2.496 -0.114,0.795 -0.227,1.703 -0.341,2.497 -0.113,0.794 -0.227,1.589 -0.454,2.383 -0.227,0.794 -0.34,1.589 -0.567,2.383 -0.227,0.795 -0.454,1.475 -0.681,2.27 -0.227,0.794 -0.454,1.475 -0.681,2.156 -0.227,0.681 -0.567,1.475 -0.794,2.156 -0.341,0.681 -0.568,1.362 -0.908,2.043 -0.341,0.681 -0.681,1.361 -1.021,2.042 -0.341,0.681 -0.795,1.362 -1.135,1.929 -0.341,0.568 -0.795,1.249 -1.249,1.93 -0.454,0.681 -0.907,1.248 -1.361,1.815 -0.454,0.568 -0.908,1.249 -1.476,1.816 C 10.1,-7.944 9.532,-7.376 9.078,-6.809 8.624,-6.241 8.057,-5.787 7.49,-5.22 6.922,-4.653 6.355,-4.199 5.901,-3.745 5.447,-3.291 4.766,-2.837 4.199,-2.383 3.631,-1.929 3.064,-1.589 2.383,-1.135 1.815,-0.794 1.135,-0.34 0.567,0 0.34,0 0.227,0.227 0,0.34 Z"
       style="fill:#ffffff;fill-opacity:1;fill-rule:nonzero;stroke:none"
       transform="matrix(1.3333333,0,0,-1.3333333,16565.128,646.12147)"
       clip-path="url(#clipPath1296)" />
    <path
       id="path1297"
       d="M 0,0 23.263,-49.931 39.151,-15.774 21.902,21.221 C 21.221,20.88 20.653,20.54 19.973,20.199 19.292,19.859 18.611,19.405 17.93,18.951 17.249,18.497 16.568,18.043 15.887,17.589 15.206,17.135 14.525,16.682 13.958,16.114 13.391,15.547 12.71,15.093 12.029,14.525 11.348,13.958 10.781,13.391 10.1,12.823 9.419,12.256 8.851,11.575 8.284,11.008 7.717,10.44 7.036,9.759 6.468,9.078 5.901,8.398 5.333,7.83 4.766,7.149 4.199,6.468 3.745,5.787 3.177,5.107 2.61,4.426 2.156,3.745 1.702,3.064 1.248,2.383 0.794,1.702 0.34,0.908 0.114,0.567 0,0.34 -0.227,0 Z"
       style="fill:#ffffff;fill-opacity:1;fill-rule:nonzero;stroke:none"
       transform="matrix(1.3333333,0,0,-1.3333333,16483.876,675.02093)"
       clip-path="url(#clipPath1298)" />
    <path
       id="path1299"
       d="m 0,0 h -44.03 l -21.335,-45.732 c 0.568,-0.227 1.022,-0.454 1.589,-0.681 0.681,-0.227 1.362,-0.454 2.043,-0.681 0.681,-0.227 1.361,-0.454 2.156,-0.568 0.794,-0.113 1.475,-0.34 2.156,-0.453 0.68,-0.114 1.475,-0.227 2.269,-0.341 0.795,-0.113 1.476,-0.227 2.27,-0.227 0.794,0 1.589,-0.113 2.383,-0.113 h 2.383 2.384 c 0.794,0 1.588,0 2.383,0.113 0.794,0.114 1.588,0.114 2.269,0.227 0.681,0.114 1.476,0.227 2.27,0.341 0.794,0.113 1.475,0.34 2.27,0.453 0.794,0.114 1.475,0.341 2.156,0.568 0.681,0.227 1.475,0.454 2.156,0.681 0.68,0.227 1.361,0.567 2.042,0.794 0.681,0.227 1.362,0.567 2.043,0.908 0.681,0.34 1.362,0.681 1.929,1.021 0.567,0.341 1.248,0.795 1.929,1.135 0.681,0.34 1.249,0.794 1.929,1.248 0.681,0.454 1.249,0.908 1.816,1.362 0.567,0.454 1.248,1.021 1.816,1.475 0.567,0.454 1.135,1.022 1.702,1.589 0.567,0.567 1.135,1.135 1.702,1.702 0.568,0.568 1.135,1.249 1.589,1.816 0.454,0.567 1.021,1.248 1.588,1.929 0.568,0.681 1.022,1.248 1.476,1.929 0.454,0.681 0.908,1.362 1.361,2.043 0.454,0.681 0.908,1.362 1.249,2.043 0.34,0.68 0.794,1.361 1.135,2.156 0.34,0.794 0.794,1.475 1.134,2.156 0.341,0.681 0.681,1.475 1.022,2.269 0.34,0.795 0.681,1.589 0.908,2.27 0.226,0.681 0.567,1.589 0.794,2.383 0.227,0.794 0.567,1.589 0.794,2.497 0.227,0.907 0.454,1.702 0.681,2.496 0.227,0.795 0.341,1.702 0.568,2.61 0.226,0.908 0.34,1.702 0.453,2.61 0.114,0.908 0.227,1.816 0.341,2.724 v 0.681 z"
       style="fill:#ffffff;fill-opacity:1;fill-rule:nonzero;stroke:none"
       transform="matrix(1.3333333,0,0,-1.3333333,16593.271,711.6372)"
       clip-path="url(#clipPath1300)" />
    <path
       id="path1301"
       d="m 0,0 h -0.227 c -0.794,-0.227 -1.588,-0.567 -2.383,-0.908 -0.794,-0.34 -1.589,-0.681 -2.27,-1.135 -0.681,-0.454 -1.475,-0.794 -2.156,-1.361 -0.681,-0.454 -1.361,-1.022 -1.929,-1.476 -0.681,-0.567 -1.248,-1.134 -1.816,-1.702 -0.34,-0.34 -0.567,-0.567 -0.794,-0.908 -0.227,-0.227 -0.454,-0.454 -0.681,-0.794 -0.454,-0.567 -0.908,-1.248 -1.362,-1.816 -0.453,-0.567 -0.794,-1.361 -1.134,-2.042 -0.341,-0.681 -0.681,-1.362 -1.022,-2.156 0,-0.227 -0.226,-0.454 -0.34,-0.795 -0.341,-0.794 -0.568,-1.702 -0.794,-2.496 -0.227,-0.908 -0.454,-1.703 -0.568,-2.724 -0.113,-1.021 -0.227,-1.816 -0.34,-2.837 0,-0.908 -0.114,-1.929 -0.114,-2.95 0,-1.022 0,-1.816 0.114,-2.61 0,-0.908 0.227,-1.703 0.34,-2.497 0.114,-0.794 0.341,-1.702 0.568,-2.497 0.226,-0.794 0.453,-1.588 0.794,-2.383 0.34,-0.794 0.681,-1.588 1.021,-2.269 0.341,-0.681 0.794,-1.475 1.249,-2.156 0.454,-0.681 0.907,-1.362 1.361,-2.043 0.454,-0.681 1.021,-1.248 1.589,-1.929 0.567,-0.568 1.135,-1.135 1.816,-1.702 0.681,-0.568 1.248,-1.022 1.929,-1.476 0.68,-0.453 1.361,-0.907 2.156,-1.361 0.794,-0.454 1.588,-0.795 2.383,-1.135 0.794,-0.341 1.702,-0.681 2.496,-0.908 0.795,-0.227 1.703,-0.454 2.724,-0.681 1.021,-0.227 1.816,-0.34 2.837,-0.454 1.021,-0.113 1.929,-0.113 2.95,-0.113 1.249,0 2.497,0 3.632,0.113 1.135,0.114 2.269,0.341 3.291,0.568 1.021,0.34 2.042,0.567 2.95,0.907 0.908,0.341 1.702,0.681 2.497,1.135 1.588,0.795 2.723,1.362 3.404,1.929 l -3.518,7.49 c -0.567,-0.567 -1.362,-1.021 -2.156,-1.475 -0.794,-0.454 -1.702,-0.908 -2.837,-1.362 -0.454,-0.227 -1.021,-0.34 -1.589,-0.567 -0.567,-0.227 -1.134,-0.227 -1.702,-0.341 -1.135,-0.227 -2.383,-0.34 -3.745,-0.34 H 6.582 c -0.681,0 -1.249,0.113 -1.929,0.227 -0.568,0.113 -1.249,0.227 -1.816,0.454 -0.568,0.227 -1.135,0.34 -1.702,0.567 -1.135,0.454 -2.043,1.021 -3.064,1.702 -0.454,0.341 -0.908,0.681 -1.362,1.022 -0.454,0.34 -0.794,0.794 -1.248,1.134 -0.341,0.454 -0.795,0.908 -1.135,1.362 -0.341,0.454 -0.681,0.908 -0.908,1.475 -0.227,0.568 -0.568,1.022 -0.794,1.589 -0.227,0.568 -0.454,1.135 -0.681,1.702 -0.227,0.568 -0.341,1.135 -0.568,1.816 -0.227,0.681 -0.227,1.248 -0.34,1.816 -0.227,1.248 -0.341,2.61 -0.341,3.972 v 1.929 c 0,0.681 0.114,1.248 0.227,1.815 0.114,0.568 0.227,1.249 0.454,1.816 0.227,0.567 0.34,1.135 0.567,1.702 0.454,1.135 1.021,2.156 1.702,3.178 0.681,1.021 1.362,1.929 2.156,2.723 0.341,0.454 0.795,0.795 1.249,1.248 0.454,0.454 0.908,0.681 1.362,1.022 0.453,0.34 0.907,0.681 1.475,0.908 0.454,0.227 1.021,0.567 1.588,0.794 0.568,0.227 1.022,0.454 1.589,0.681 0.454,0.113 1.362,0.227 2.043,0.227 H 23.263 V 0.681 H 4.198 C 3.063,0.681 1.134,0.454 0.112,0.227 Z"
       style="fill:#ffffff;fill-opacity:1;fill-rule:nonzero;stroke:none"
       transform="matrix(1.3333333,0,0,-1.3333333,16710.685,674.86973)"
       clip-path="url(#clipPath1302)" />
  </g>
</svg>
